<svg id="assignment_turned_in-24px" xmlns="http://www.w3.org/2000/svg" width="80" height="80" viewBox="0 0 80 80">
  <path id="Path_256" data-name="Path 256" d="M0,0H80V80H0Z" fill="none"/>
  <path id="Path_257" data-name="Path 257" d="M56.333,7.667H42.4a9.96,9.96,0,0,0-18.8,0H9.667A6.686,6.686,0,0,0,3,14.333V61a6.686,6.686,0,0,0,6.667,6.667H56.333A6.686,6.686,0,0,0,63,61V14.333A6.686,6.686,0,0,0,56.333,7.667ZM33,7.667A3.333,3.333,0,1,1,29.667,11,3.343,3.343,0,0,1,33,7.667ZM26.333,54.333,13,41l4.7-4.7,8.633,8.6L48.3,22.933,53,27.667Z" transform="translate(7 2.333)" fill="#1453ff"/>
</svg>
