<svg id="supervised_user_circle-24px_2_" data-name="supervised_user_circle-24px (2)" xmlns="http://www.w3.org/2000/svg" width="80" height="80" viewBox="0 0 80 80">
  <path id="Path_254" data-name="Path 254" d="M35.323,2A33.333,33.333,0,1,0,68.657,35.333,33.345,33.345,0,0,0,35.323,2ZM47.357,23.133a6.433,6.433,0,1,1-6.433,6.433A6.416,6.416,0,0,1,47.357,23.133Zm-20-5.267a7.867,7.867,0,1,1-7.867,7.867A7.881,7.881,0,0,1,27.357,17.867Zm0,30.433V60.8A26.689,26.689,0,0,1,10.223,44.267c3.5-3.733,12.233-5.633,17.133-5.633a33.908,33.908,0,0,1,6.333.733C28.223,42.267,27.357,46.1,27.357,48.3ZM35.323,62a22.838,22.838,0,0,1-2.633-.133V48.3c0-4.733,9.8-7.1,14.667-7.1,3.567,0,9.733,1.3,12.8,3.833A26.729,26.729,0,0,1,35.323,62Z" transform="translate(4.643 4.667)" fill="#1453ff"/>
  <path id="Path_255" data-name="Path 255" d="M0,0H80V80H0Z" fill="none"/>
</svg>
