<?xml version="1.0" standalone="no"?>
<svg xmlns:xlink="http://www.w3.org/1999/xlink" id="wave" style="transform:rotate(0deg); transition: 0.3s" viewBox="0 0 1440 490" version="1.1" xmlns="http://www.w3.org/2000/svg"><defs><linearGradient id="sw-gradient-0" x1="0" x2="0" y1="1" y2="0"><stop stop-color="rgba(60, 65, 223, 1)" offset="0%"/><stop stop-color="rgba(60, 65, 223, 1)" offset="100%"/></linearGradient></defs><path style="transform:translate(0, 0px); opacity:1" fill="url(#sw-gradient-0)" d="M0,98L120,138.8C240,180,480,261,720,245C960,229,1200,114,1440,65.3C1680,16,1920,33,2160,32.7C2400,33,2640,16,2880,8.2C3120,0,3360,0,3600,40.8C3840,82,4080,163,4320,212.3C4560,261,4800,278,5040,245C5280,212,5520,131,5760,138.8C6000,147,6240,245,6480,285.8C6720,327,6960,310,7200,318.5C7440,327,7680,359,7920,359.3C8160,359,8400,327,8640,310.3C8880,294,9120,294,9360,310.3C9600,327,9840,359,10080,318.5C10320,278,10560,163,10800,138.8C11040,114,11280,180,11520,212.3C11760,245,12000,245,12240,245C12480,245,12720,245,12960,212.3C13200,180,13440,114,13680,81.7C13920,49,14160,49,14400,57.2C14640,65,14880,82,15120,106.2C15360,131,15600,163,15840,204.2C16080,245,16320,294,16560,277.7C16800,261,17040,180,17160,138.8L17280,98L17280,490L17160,490C17040,490,16800,490,16560,490C16320,490,16080,490,15840,490C15600,490,15360,490,15120,490C14880,490,14640,490,14400,490C14160,490,13920,490,13680,490C13440,490,13200,490,12960,490C12720,490,12480,490,12240,490C12000,490,11760,490,11520,490C11280,490,11040,490,10800,490C10560,490,10320,490,10080,490C9840,490,9600,490,9360,490C9120,490,8880,490,8640,490C8400,490,8160,490,7920,490C7680,490,7440,490,7200,490C6960,490,6720,490,6480,490C6240,490,6000,490,5760,490C5520,490,5280,490,5040,490C4800,490,4560,490,4320,490C4080,490,3840,490,3600,490C3360,490,3120,490,2880,490C2640,490,2400,490,2160,490C1920,490,1680,490,1440,490C1200,490,960,490,720,490C480,490,240,490,120,490L0,490Z"/></svg>