<?xml version="1.0" standalone="no"?>
<svg xmlns:xlink="http://www.w3.org/1999/xlink" id="wave" style="transform:rotate(0deg); transition: 0.3s" viewBox="0 0 1440 490" version="1.1" xmlns="http://www.w3.org/2000/svg"><defs><linearGradient id="sw-gradient-0" x1="0" x2="0" y1="1" y2="0"><stop stop-color="rgba(255, 255, 255, 1)" offset="0%"/><stop stop-color="rgba(255, 255, 255, 1)" offset="100%"/></linearGradient></defs><path style="transform:translate(0, 0px); opacity:1" fill="url(#sw-gradient-0)" d="M0,196L120,236.8C240,278,480,359,720,367.5C960,376,1200,310,1440,253.2C1680,196,1920,147,2160,155.2C2400,163,2640,229,2880,236.8C3120,245,3360,196,3600,155.2C3840,114,4080,82,4320,106.2C4560,131,4800,212,5040,212.3C5280,212,5520,131,5760,89.8C6000,49,6240,49,6480,98C6720,147,6960,245,7200,302.2C7440,359,7680,376,7920,359.3C8160,343,8400,294,8640,269.5C8880,245,9120,245,9360,204.2C9600,163,9840,82,10080,65.3C10320,49,10560,98,10800,138.8C11040,180,11280,212,11520,220.5C11760,229,12000,212,12240,187.8C12480,163,12720,131,12960,114.3C13200,98,13440,98,13680,130.7C13920,163,14160,229,14400,277.7C14640,327,14880,359,15120,367.5C15360,376,15600,359,15840,367.5C16080,376,16320,408,16560,400.2C16800,392,17040,343,17160,318.5L17280,294L17280,490L17160,490C17040,490,16800,490,16560,490C16320,490,16080,490,15840,490C15600,490,15360,490,15120,490C14880,490,14640,490,14400,490C14160,490,13920,490,13680,490C13440,490,13200,490,12960,490C12720,490,12480,490,12240,490C12000,490,11760,490,11520,490C11280,490,11040,490,10800,490C10560,490,10320,490,10080,490C9840,490,9600,490,9360,490C9120,490,8880,490,8640,490C8400,490,8160,490,7920,490C7680,490,7440,490,7200,490C6960,490,6720,490,6480,490C6240,490,6000,490,5760,490C5520,490,5280,490,5040,490C4800,490,4560,490,4320,490C4080,490,3840,490,3600,490C3360,490,3120,490,2880,490C2640,490,2400,490,2160,490C1920,490,1680,490,1440,490C1200,490,960,490,720,490C480,490,240,490,120,490L0,490Z"/></svg>